<svg width="141" height="80" viewBox="0 0 141 80" fill="none" xmlns="http://www.w3.org/2000/svg">
<path d="M127.53 57.3135C127.53 44.784 117.789 34.6269 105.773 34.6269H22.1795C10.1633 34.6269 0.422336 44.784 0.422336 57.3135V57.3135C0.422336 69.8429 10.1633 80 22.1795 80H105.773C117.789 80 127.53 69.8429 127.53 57.3135V57.3135Z" fill="#EEB490"/>
<path d="M103.482 23.3689C103.482 17.057 98.5754 11.9403 92.5221 11.9403C86.4689 11.9403 81.5618 17.057 81.5618 23.3689V57.6546C81.5618 63.9664 86.4689 69.0831 92.5221 69.0831C98.5754 69.0831 103.482 63.9664 103.482 57.6545V23.3689Z" fill="#EEB490"/>
<path d="M78.2899 11.4286C78.2899 5.11673 73.3829 0 67.3296 0C61.2764 0 56.3693 5.11674 56.3693 11.4286V45.7142C56.3693 52.0261 61.2764 57.1428 67.3296 57.1428C73.3829 57.1428 78.2899 52.0261 78.2899 45.7142V11.4286Z" fill="#EEB490"/>
<path d="M22.1794 28.145C22.1794 21.8332 17.2724 16.7164 11.2191 16.7164C5.1659 16.7164 0.258782 21.8332 0.258782 28.145V62.4307C0.258782 68.7425 5.1659 73.8592 11.2191 73.8592C17.2724 73.8592 22.1794 68.7425 22.1794 62.4307V28.145Z" fill="#EEB490"/>
<path d="M51.9524 19.7868C51.9524 13.4749 47.0453 8.35822 40.9921 8.35822C34.9388 8.35822 30.0317 13.475 30.0317 19.7868V54.0725C30.0317 60.3843 34.9388 65.501 40.9921 65.501C47.0453 65.501 51.9524 60.3843 51.9524 54.0724V19.7868Z" fill="#EEB490"/>
<path d="M136.833 22.189C138.725 16.1934 135.598 9.73383 129.848 7.7612C124.097 5.78857 117.903 9.04988 116.011 15.0455L105.734 47.6138C103.843 53.6094 106.97 60.069 112.72 62.0416C118.47 64.0142 124.665 60.7529 126.557 54.7573L136.833 22.189Z" fill="#EEB490"/>
</svg>
