<svg width="70" height="40" viewBox="0 0 70 40" fill="none" xmlns="http://www.w3.org/2000/svg">
<path d="M63.6355 28.6568C63.6355 22.392 58.765 17.3135 52.7569 17.3135H10.9603C4.95227 17.3135 0.0817733 22.392 0.0817733 28.6568V28.6568C0.0817733 34.9215 4.95227 40 10.9603 40H52.7569C58.765 40 63.6355 34.9215 63.6355 28.6568V28.6568Z" fill="#EEB490"/>
<path d="M51.6118 11.6845C51.6118 8.52858 49.1583 5.97021 46.1317 5.97021C43.105 5.97021 40.6515 8.52859 40.6515 11.6845V28.8273C40.6515 31.9833 43.105 34.5416 46.1317 34.5416C49.1583 34.5416 51.6118 31.9832 51.6118 28.8273V11.6845Z" fill="#EEB490"/>
<path d="M39.0156 5.71428C39.0156 2.55837 36.5621 0 33.5355 0C30.5089 0 28.0553 2.55837 28.0553 5.71428V22.8571C28.0553 26.013 30.5089 28.5714 33.5355 28.5714C36.5621 28.5714 39.0156 26.013 39.0156 22.8571V5.71428Z" fill="#EEB490"/>
<path d="M10.9604 14.0724C10.9604 10.9165 8.50692 8.35815 5.4803 8.35815C2.45368 8.35815 0.000118709 10.9165 0.000118709 14.0724V31.2153C0.000118709 34.3712 2.45368 36.9295 5.4803 36.9295C8.50692 36.9295 10.9604 34.3712 10.9604 31.2153V14.0724Z" fill="#EEB490"/>
<path d="M25.8467 9.89336C25.8467 6.73744 23.3931 4.17908 20.3665 4.17908C17.3399 4.17908 14.8863 6.73745 14.8863 9.89336V27.0362C14.8863 30.1921 17.3399 32.7505 20.3665 32.7505C23.3931 32.7505 25.8467 30.1921 25.8467 27.0362V9.89336Z" fill="#EEB490"/>
<path d="M68.2873 11.0945C69.2332 8.09672 67.6694 4.86695 64.7944 3.88063C61.9193 2.89432 58.8219 4.52497 57.876 7.5228L52.7378 23.8069C51.7919 26.8047 53.3558 30.0345 56.2308 31.0208C59.1058 32.0071 62.2032 30.3765 63.1491 27.3787L68.2873 11.0945Z" fill="#EEB490"/>
</svg>
