<svg width="300" height="300" viewBox="0 0 300 300" fill="none" xmlns="http://www.w3.org/2000/svg">
<path d="M217.684 166.754H82.0694C45.649 166.754 16.2854 196.167 16.2854 232.538V300H283.714V232.588C283.467 196.167 254.105 166.754 217.684 166.754Z" fill="#FF667C"/>
<path d="M200.461 166.754H99.293V254.598L149.876 206.778L200.461 254.598V166.754Z" fill="#D34A5E"/>
<path d="M149.876 196.562C170.536 196.562 187.284 179.814 187.284 159.155C187.284 138.495 170.536 121.747 149.876 121.747C129.217 121.747 112.469 138.495 112.469 159.155C112.469 179.814 129.217 196.562 149.876 196.562Z" fill="#EEB490"/>
<path d="M94.0125 70.275C93.8148 71.4598 93.7163 72.6934 93.7163 73.9759V114.048C82.8098 112.765 74.3217 103.488 74.3217 92.1865C74.2721 80.7861 82.9083 71.4094 94.0125 70.275Z" fill="#EEB490"/>
<path d="M225.481 92.1865C225.481 103.438 216.993 112.766 206.087 114.048V73.9759C206.087 72.7423 205.988 71.5087 205.84 70.275C216.894 71.459 225.481 80.7861 225.481 92.1865Z" fill="#EEB490"/>
<path d="M206.087 73.9759V115.183C206.087 146.768 180.079 172.183 148.298 171.393C117.7 170.406 93.6667 144.596 93.6667 113.999V73.9759C93.7164 71.7552 94.0126 69.5345 94.5553 67.5107C98.3555 69.2383 102.599 70.1757 107.041 70.1757C114.444 70.1757 121.057 67.5604 126.238 63.1678C131.222 70.7681 139.858 75.9492 149.828 75.9492C159.648 75.9492 168.235 70.9651 173.417 63.1678C178.599 67.5604 185.409 70.1757 192.614 70.1757C197.105 70.1757 201.348 69.1887 205.149 67.4611C205.791 69.5345 206.087 71.7056 206.087 73.9759Z" fill="#FACCB4"/>
<path d="M192.663 9.96906C186.05 9.96906 180.079 12.1897 175.045 15.7922C170.456 6.4155 160.833 0 149.828 0C138.823 0 129.248 6.4155 124.61 15.5944C119.626 11.992 113.605 9.77134 106.992 9.77134C90.4102 9.77134 76.7891 23.1947 76.7891 39.9739C76.7891 56.5555 90.2125 70.1766 106.992 70.1766C114.394 70.1766 121.007 67.5612 126.189 63.1687C131.173 70.7689 139.809 75.95 149.778 75.95C159.599 75.95 168.185 70.9659 173.367 63.1687C178.549 67.5612 185.359 70.1766 192.564 70.1766C209.146 70.1766 222.767 56.7532 222.767 39.9739C222.668 23.3428 209.295 9.96906 192.663 9.96906Z" fill="#56545F"/>
<path d="M128.036 92.3697C128.036 94.4777 126.546 96.1866 124.707 96.1866C122.869 96.1866 121.378 94.4777 121.378 92.3697C121.378 90.2616 122.869 88.5527 124.707 88.5527C126.546 88.5527 128.036 90.2616 128.036 92.3697Z" fill="black"/>
<path d="M178.632 92.3697C178.632 94.4777 177.142 96.1866 175.304 96.1866C173.465 96.1866 171.975 94.4777 171.975 92.3697C171.975 90.2616 173.465 88.5527 175.304 88.5527C177.142 88.5527 178.632 90.2616 178.632 92.3697Z" fill="black"/>
<path d="M149.624 96.1866L156.235 119.088H143.012L149.624 96.1866Z" fill="#F5AF8A"/>
</svg>
