<svg width="550" height="550" viewBox="0 0 550 550" fill="none" xmlns="http://www.w3.org/2000/svg">
<path d="M399.088 305.716H150.46C83.6898 305.716 29.8564 359.639 29.8564 426.32V550H520.142V426.411C519.69 359.64 465.858 305.716 399.088 305.716Z" fill="#FF667C"/>
<path d="M367.511 305.716H182.037V466.762L274.773 379.092L367.511 466.762V305.716Z" fill="#D34A5E"/>
<path d="M274.773 360.364C312.649 360.364 343.354 329.659 343.354 291.783C343.354 253.907 312.649 223.203 274.773 223.203C236.897 223.203 206.193 253.907 206.193 291.783C206.193 329.659 236.897 360.364 274.773 360.364Z" fill="#EEB490"/>
<path d="M172.356 128.838C171.994 131.01 171.813 133.271 171.813 135.622V209.089C151.818 206.736 136.256 189.727 136.256 169.009C136.166 148.108 151.999 130.917 172.356 128.838Z" fill="#EEB490"/>
<path d="M413.382 169.009C413.382 189.636 397.821 206.737 377.826 209.089V135.622C377.826 133.361 377.645 131.099 377.374 128.838C397.639 131.008 413.382 148.108 413.382 169.009Z" fill="#EEB490"/>
<path d="M377.826 135.622V211.17C377.826 269.074 330.145 315.669 271.879 314.221C215.784 312.411 171.722 265.093 171.722 208.998V135.622C171.813 131.551 172.356 127.48 173.351 123.77C180.318 126.937 188.098 128.656 196.242 128.656C209.814 128.656 221.938 123.861 231.437 115.808C240.574 129.742 256.407 139.24 274.684 139.24C292.689 139.24 308.431 130.103 317.931 115.808C327.431 123.861 339.916 128.656 353.125 128.656C361.359 128.656 369.139 126.846 376.106 123.679C377.283 127.48 377.826 131.46 377.826 135.622Z" fill="#FACCB4"/>
<path d="M353.216 18.2766C341.092 18.2766 330.145 22.3479 320.916 28.9523C312.502 11.7617 294.859 0 274.684 0C254.508 0 236.955 11.7617 228.451 28.5898C219.314 21.9854 208.275 17.9141 196.151 17.9141C165.752 17.9141 140.78 42.5237 140.78 73.2856C140.78 103.685 165.389 128.657 196.151 128.657C209.723 128.657 221.847 123.862 231.345 115.809C240.483 129.743 256.316 139.242 274.593 139.242C292.598 139.242 308.34 130.104 317.84 115.809C327.34 123.862 339.825 128.657 353.034 128.657C383.434 128.657 408.406 104.047 408.406 73.2856C408.225 42.7952 383.707 18.2766 353.216 18.2766Z" fill="#56545F"/>
<path d="M234.732 169.344C234.732 173.209 232 176.342 228.63 176.342C225.259 176.342 222.527 173.209 222.527 169.344C222.527 165.48 225.259 162.347 228.63 162.347C232 162.347 234.732 165.48 234.732 169.344Z" fill="black"/>
<path d="M327.493 169.344C327.493 173.209 324.76 176.342 321.39 176.342C318.019 176.342 315.287 173.209 315.287 169.344C315.287 165.48 318.019 162.347 321.39 162.347C324.76 162.347 327.493 165.48 327.493 169.344Z" fill="black"/>
<path d="M274.31 176.342L286.43 218.328H262.19L274.31 176.342Z" fill="#F5AF8A"/>
</svg>
