<svg width="70" height="40" viewBox="0 0 70 40" fill="none" xmlns="http://www.w3.org/2000/svg">
<rect x="6.3645" y="17.3135" width="63.5537" height="22.6866" rx="11.3433" fill="#EEB490"/>
<path d="M18.3882 11.6845C18.3882 8.52858 20.8417 5.97021 23.8683 5.97021C26.895 5.97021 29.3485 8.52859 29.3485 11.6845V28.8273C29.3485 31.9833 26.895 34.5416 23.8683 34.5416C20.8417 34.5416 18.3882 31.9832 18.3882 28.8273V11.6845Z" fill="#EEB490"/>
<path d="M30.9844 5.71428C30.9844 2.55837 33.4379 0 36.4645 0C39.4911 0 41.9447 2.55837 41.9447 5.71428V22.8571C41.9447 26.013 39.4911 28.5714 36.4645 28.5714C33.4379 28.5714 30.9844 26.013 30.9844 22.8571V5.71428Z" fill="#EEB490"/>
<path d="M59.0396 14.0724C59.0396 10.9165 61.4931 8.35815 64.5197 8.35815C67.5463 8.35815 69.9999 10.9165 69.9999 14.0724V31.2153C69.9999 34.3712 67.5463 36.9295 64.5197 36.9295C61.4931 36.9295 59.0396 34.3712 59.0396 31.2153V14.0724Z" fill="#EEB490"/>
<path d="M44.1533 9.89336C44.1533 6.73744 46.6069 4.17908 49.6335 4.17908C52.6601 4.17908 55.1137 6.73745 55.1137 9.89336V27.0362C55.1137 30.1921 52.6601 32.7505 49.6335 32.7505C46.6069 32.7505 44.1533 30.1921 44.1533 27.0362V9.89336Z" fill="#EEB490"/>
<path d="M1.71274 11.0945C0.766838 8.09672 2.33066 4.86695 5.20567 3.88063C8.08068 2.89432 11.1781 4.52497 12.1241 7.5228L17.2622 23.8069C18.2081 26.8047 16.6442 30.0345 13.7692 31.0208C10.8942 32.0071 7.79679 30.3765 6.85088 27.3787L1.71274 11.0945Z" fill="#EEB490"/>
</svg>
