<svg width="140" height="80" viewBox="0 0 140 80" fill="none" xmlns="http://www.w3.org/2000/svg">
<rect x="12.729" y="34.6269" width="127.107" height="45.3731" rx="19.1429" fill="#EEB490"/>
<path d="M36.7764 23.3689C36.7764 17.057 41.6834 11.9403 47.7367 11.9403C53.7899 11.9403 58.697 17.057 58.697 23.3689V57.6546C58.697 63.9664 53.7899 69.0831 47.7367 69.0831C41.6834 69.0831 36.7764 63.9664 36.7764 57.6545V23.3689Z" fill="#EEB490"/>
<path d="M61.9688 11.4286C61.9688 5.11673 66.8758 0 72.9291 0C78.9823 0 83.8894 5.11674 83.8894 11.4286V45.7142C83.8894 52.0261 78.9823 57.1428 72.9291 57.1428C66.8758 57.1428 61.9688 52.0261 61.9688 45.7142V11.4286Z" fill="#EEB490"/>
<path d="M118.079 28.145C118.079 21.8332 122.986 16.7164 129.04 16.7164C135.093 16.7164 140 21.8332 140 28.145V62.4307C140 68.7425 135.093 73.8592 129.04 73.8592C122.986 73.8592 118.079 68.7425 118.079 62.4307V28.145Z" fill="#EEB490"/>
<path d="M88.3064 19.7868C88.3064 13.4749 93.2135 8.35822 99.2667 8.35822C105.32 8.35822 110.227 13.475 110.227 19.7868V54.0725C110.227 60.3843 105.32 65.501 99.2667 65.501C93.2135 65.501 88.3064 60.3843 88.3064 54.0724V19.7868Z" fill="#EEB490"/>
<path d="M3.42549 22.189C1.53368 16.1934 4.66132 9.73383 10.4113 7.76121C16.1614 5.78858 22.3563 9.04988 24.2481 15.0455L34.5244 47.6138C36.4162 53.6094 33.2885 60.069 27.5385 62.0416C21.7884 64.0142 15.5936 60.7529 13.7018 54.7573L3.42549 22.189Z" fill="#EEB490"/>
</svg>
